<mxfile host="app.diagrams.net" modified="2024-06-14T17:38:51.924Z" agent="Mozilla/5.0 (Windows NT 10.0; Win64; x64) AppleWebKit/537.36 (KHTML, like Gecko) Chrome/125.0.0.0 Safari/537.36 Edg/125.0.0.0" etag="0xaJS_oXupynxZqQw_Ha" version="24.5.4" type="device">
  <diagram name="Página-1" id="h217JQKUkjtazqt_KmYH">
    <mxGraphModel dx="1002" dy="577" grid="1" gridSize="10" guides="1" tooltips="1" connect="1" arrows="1" fold="1" page="1" pageScale="1" pageWidth="827" pageHeight="1169" math="0" shadow="0">
      <root>
        <mxCell id="0" />
        <mxCell id="1" parent="0" />
        <mxCell id="QDsNCm6gQSmQBIW8bFh_-5" value="" style="edgeStyle=orthogonalEdgeStyle;rounded=0;orthogonalLoop=1;jettySize=auto;html=1;" edge="1" parent="1" source="QDsNCm6gQSmQBIW8bFh_-3" target="QDsNCm6gQSmQBIW8bFh_-4">
          <mxGeometry relative="1" as="geometry" />
        </mxCell>
        <mxCell id="QDsNCm6gQSmQBIW8bFh_-3" value="inicio" style="strokeWidth=2;html=1;shape=mxgraph.flowchart.start_1;whiteSpace=wrap;" vertex="1" parent="1">
          <mxGeometry x="364" y="50" width="100" height="60" as="geometry" />
        </mxCell>
        <mxCell id="QDsNCm6gQSmQBIW8bFh_-7" value="" style="edgeStyle=orthogonalEdgeStyle;rounded=0;orthogonalLoop=1;jettySize=auto;html=1;entryX=0.5;entryY=0.207;entryDx=0;entryDy=0;entryPerimeter=0;" edge="1" parent="1" source="QDsNCm6gQSmQBIW8bFh_-4" target="QDsNCm6gQSmQBIW8bFh_-6">
          <mxGeometry relative="1" as="geometry" />
        </mxCell>
        <mxCell id="QDsNCm6gQSmQBIW8bFh_-4" value="raiocirculo,&amp;nbsp;&lt;div&gt;&amp;nbsp;areacirculo = pi *&amp;nbsp;raiocirculo ²&lt;div&gt;pi=3.1416&lt;br&gt;&lt;/div&gt;&lt;/div&gt;" style="shape=parallelogram;html=1;strokeWidth=2;perimeter=parallelogramPerimeter;whiteSpace=wrap;rounded=1;arcSize=12;size=0.23;" vertex="1" parent="1">
          <mxGeometry x="309" y="170" width="210" height="60" as="geometry" />
        </mxCell>
        <mxCell id="QDsNCm6gQSmQBIW8bFh_-6" value="&lt;div&gt;&lt;span style=&quot;background-color: initial;&quot;&gt;&lt;br&gt;&lt;/span&gt;&lt;/div&gt;&lt;div&gt;&lt;span style=&quot;background-color: initial;&quot;&gt;raiocirculo&lt;/span&gt;&lt;br&gt;&lt;/div&gt;" style="html=1;strokeWidth=2;shape=manualInput;whiteSpace=wrap;rounded=1;size=26;arcSize=11;" vertex="1" parent="1">
          <mxGeometry x="358.5" y="280" width="111" height="60" as="geometry" />
        </mxCell>
        <mxCell id="QDsNCm6gQSmQBIW8bFh_-11" value="" style="edgeStyle=orthogonalEdgeStyle;rounded=0;orthogonalLoop=1;jettySize=auto;html=1;" edge="1" parent="1" source="QDsNCm6gQSmQBIW8bFh_-8" target="QDsNCm6gQSmQBIW8bFh_-10">
          <mxGeometry relative="1" as="geometry" />
        </mxCell>
        <mxCell id="QDsNCm6gQSmQBIW8bFh_-8" value="areacirculo" style="strokeWidth=2;html=1;shape=mxgraph.flowchart.display;whiteSpace=wrap;" vertex="1" parent="1">
          <mxGeometry x="364" y="390" width="100" height="60" as="geometry" />
        </mxCell>
        <mxCell id="QDsNCm6gQSmQBIW8bFh_-9" style="edgeStyle=orthogonalEdgeStyle;rounded=0;orthogonalLoop=1;jettySize=auto;html=1;exitX=0.5;exitY=1;exitDx=0;exitDy=0;entryX=0.5;entryY=0;entryDx=0;entryDy=0;entryPerimeter=0;" edge="1" parent="1" source="QDsNCm6gQSmQBIW8bFh_-6" target="QDsNCm6gQSmQBIW8bFh_-8">
          <mxGeometry relative="1" as="geometry" />
        </mxCell>
        <mxCell id="QDsNCm6gQSmQBIW8bFh_-10" value="inicio" style="strokeWidth=2;html=1;shape=mxgraph.flowchart.start_1;whiteSpace=wrap;" vertex="1" parent="1">
          <mxGeometry x="364" y="490" width="100" height="60" as="geometry" />
        </mxCell>
      </root>
    </mxGraphModel>
  </diagram>
</mxfile>
